<?xml version="1.0" encoding="UTF-8" standalone="no"?>
<!-- Created with Inkscape (http://www.inkscape.org/) -->

<svg
   xmlns:dc="http://purl.org/dc/elements/1.1/"
   xmlns:cc="http://creativecommons.org/ns#"
   xmlns:rdf="http://www.w3.org/1999/02/22-rdf-syntax-ns#"
   xmlns:svg="http://www.w3.org/2000/svg"
   xmlns="http://www.w3.org/2000/svg"
   xmlns:sodipodi="http://sodipodi.sourceforge.net/DTD/sodipodi-0.dtd"
   xmlns:inkscape="http://www.inkscape.org/namespaces/inkscape"
   width="68.824738mm"
   height="67.051285mm"
   viewBox="0 0 243.86717 237.58329"
   id="svg2"
   version="1.1"
   inkscape:version="0.48.4 r9939"
   sodipodi:docname="gravesite-with-flowers-johnny-jay.svg">
  <defs
     id="defs4">
    <pattern
       y="0"
       x="0"
       height="6"
       width="6"
       patternUnits="userSpaceOnUse"
       id="EMFhbasepattern" />
    <clipPath
       id="clipEmfPath1"
       clipPathUnits="userSpaceOnUse">
      <path
         inkscape:connector-curvature="0"
         id="path3366"
         d="m 5.00114,-2.50057 870.19886,0 0,847.69357 -870.19886,0 z" />
    </clipPath>
    <pattern
       y="0"
       x="0"
       height="6"
       width="6"
       patternUnits="userSpaceOnUse"
       id="EMFhbasepattern-5" />
    <clipPath
       id="clipEmfPath1-6"
       clipPathUnits="userSpaceOnUse">
      <path
         inkscape:connector-curvature="0"
         id="path3471"
         d="m 5.00114,-2.50057 870.19886,0 0,847.69357 -870.19886,0 z" />
    </clipPath>
    <pattern
       y="0"
       x="0"
       height="6"
       width="6"
       patternUnits="userSpaceOnUse"
       id="EMFhbasepattern-59" />
    <clipPath
       id="clipEmfPath1-1"
       clipPathUnits="userSpaceOnUse">
      <path
         inkscape:connector-curvature="0"
         id="path7695"
         d="m 5.00114,-2.50057 870.19886,0 0,847.69357 -870.19886,0 z" />
    </clipPath>
    <pattern
       y="0"
       x="0"
       height="6"
       width="6"
       patternUnits="userSpaceOnUse"
       id="EMFhbasepattern-7" />
  </defs>
  <sodipodi:namedview
     id="base"
     pagecolor="#ffffff"
     bordercolor="#666666"
     borderopacity="1.0"
     inkscape:pageopacity="0.0"
     inkscape:pageshadow="2"
     inkscape:zoom="2"
     inkscape:cx="151.10791"
     inkscape:cy="112.17082"
     inkscape:document-units="px"
     inkscape:current-layer="layer1"
     showgrid="false"
     fit-margin-top="0"
     fit-margin-left="0"
     fit-margin-right="0"
     fit-margin-bottom="0"
     inkscape:window-width="1600"
     inkscape:window-height="824"
     inkscape:window-x="0"
     inkscape:window-y="24"
     inkscape:window-maximized="1" />
  <metadata
     id="metadata7">
    <rdf:RDF>
      <cc:Work
         rdf:about="">
        <dc:format>image/svg+xml</dc:format>
        <dc:type
           rdf:resource="http://purl.org/dc/dcmitype/StillImage" />
        <dc:title />
      </cc:Work>
    </rdf:RDF>
  </metadata>
  <g
     inkscape:label="Layer 1"
     inkscape:groupmode="layer"
     id="layer1"
     transform="translate(-215.99937,-362.41633)">
    <path
       transform="matrix(0.28222219,0,0,0.28222219,213.68157,362.12963)"
       inkscape:connector-curvature="0"
       id="path7698"
       d="m 403.608,698.363 c -81.034,10.784 -142.455,51.262 -137.219,90.411 5.157,39.15 75.017,62.202 156.051,51.418 80.956,-10.705 142.377,-51.183 137.219,-90.411 -5.235,-39.15 -75.095,-62.124 -156.051,-51.418 z"
       clip-path="url(#clipEmfPath1-1)"
       style="fill:#ba752d;fill-opacity:1;fill-rule:evenodd;stroke:none" />
    <path
       inkscape:connector-curvature="0"
       id="path7700"
       d="m 386.14106,552.27627 c -26.79503,3.55064 -47.28294,15.65797 -45.76121,27.03772 1.49973,11.35776 24.43537,17.70917 51.23068,14.13652 26.79502,-3.55064 47.28293,-15.65826 45.76119,-27.01572 -1.49973,-11.37976 -24.43535,-17.70916 -51.23066,-14.15852 z"
       style="fill:#ba752d;fill-opacity:1;fill-rule:evenodd;stroke:none" />
    <path
       inkscape:connector-curvature="0"
       id="path7702"
       d="m 247.00467,532.38384 c -7.14541,12.72483 0.11035,30.41198 16.25346,39.4761 16.12138,9.08615 34.99922,6.13071 42.16654,-6.59411 7.16759,-12.72484 -0.0881,-30.41199 -16.23145,-39.49813 -16.1211,-9.08614 -35.02123,-6.131 -42.18855,6.61614 z"
       style="fill:#ba752d;fill-opacity:1;fill-rule:evenodd;stroke:none" />
    <path
       inkscape:connector-curvature="0"
       id="path7704"
       d="m 315.63547,510.92563 c -20.35528,3.44029 -35.26367,15.5036 -33.32283,26.92739 1.91855,11.44609 19.98049,17.92986 40.31404,14.48929 20.33353,-3.44029 35.26365,-15.5036 33.32309,-26.92739 -1.94084,-11.4458 -19.98076,-17.92958 -40.3143,-14.48929 z"
       style="fill:#ba752d;fill-opacity:1;fill-rule:evenodd;stroke:none" />
    <path
       inkscape:connector-curvature="0"
       id="path7706"
       d="m 424.51452,531.83237 c -19.53964,0 -35.374,8.22622 -35.374,18.37069 0,10.14476 15.83436,18.3707 35.374,18.3707 19.51736,0 35.352,-8.22594 35.352,-18.3707 0,-10.14447 -15.83464,-18.37069 -35.352,-18.37069 z"
       style="fill:#ba752d;fill-opacity:1;fill-rule:evenodd;stroke:none" />
    <path
       inkscape:connector-curvature="0"
       id="path7708"
       d="m 388.03787,516.99031 c -29.30934,0 -53.08316,7.43204 -53.08316,16.5845 0,9.1742 23.77382,16.60624 53.08316,16.60624 29.33136,0 53.08289,-7.43204 53.08289,-16.60624 0,-9.15246 -23.75153,-16.5845 -53.08289,-16.5845 z"
       style="fill:#ba752d;fill-opacity:1;fill-rule:evenodd;stroke:none" />
    <path
       transform="matrix(0.28222219,0,0,0.28222219,213.68157,362.12963)"
       inkscape:connector-curvature="0"
       id="path7710"
       d="M 103.461,652.024 C 45.7917,659.682 3.282,698.597 8.67386,738.841 13.9876,779.163 65.1712,805.575 122.841,797.917 180.588,790.259 223.02,751.422 217.706,711.1 212.314,670.778 161.209,644.366 103.461,652.024 Z"
       clip-path="url(#clipEmfPath1-1)"
       style="fill:#ba752d;fill-opacity:1;fill-rule:evenodd;stroke:none" />
    <path
       inkscape:connector-curvature="0"
       id="path7712"
       d="m 273.07212,565.53055 c -18.08395,2.40369 -31.80144,11.48982 -30.63267,20.26722 1.16896,8.7994 16.7829,13.98213 34.86685,11.57816 18.08396,-2.40396 31.80137,-11.46781 30.63268,-20.26722 -1.16896,-8.7994 -16.7829,-13.98213 -34.86686,-11.57816 z"
       style="fill:#ba752d;fill-opacity:1;fill-rule:evenodd;stroke:none" />
    <path
       inkscape:connector-curvature="0"
       id="path7714"
       d="m 326.66245,529.69341 c -53.76671,10.85032 -94.85279,32.08782 -91.76528,47.4153 3.10958,15.34922 49.20166,18.98819 102.96866,8.11558 53.76671,-10.85031 94.85261,-32.06579 91.7651,-47.4153 -3.10953,-15.3272 -49.20177,-18.96618 -102.96848,-8.11558 z"
       style="fill:#ba752d;fill-opacity:1;fill-rule:evenodd;stroke:none" />
    <path
       inkscape:connector-curvature="0"
       id="path7716"
       d="m 316.80443,516.43913 -38.8366,35.72679 7.54239,8.20392 38.8366,-35.7268 z"
       style="fill:#808080;fill-opacity:1;fill-rule:evenodd;stroke:none" />
    <path
       inkscape:connector-curvature="0"
       id="path7718"
       d="m 278.1445,399.55455 0,152.43498 115.95805,0 0,-152.43498 -115.95805,0 z"
       style="fill:#808080;fill-opacity:1;fill-rule:evenodd;stroke:none" />
    <path
       inkscape:connector-curvature="0"
       id="path7720"
       d="m 336.12339,362.41633 c -32.02178,0 -57.97889,15.61398 -57.97889,34.8669 0,19.25263 25.95711,34.84456 57.97889,34.84456 32.02205,0 57.97916,-15.59193 57.97916,-34.84456 0,-19.25292 -25.95711,-34.8669 -57.97916,-34.8669 z"
       style="fill:#808080;fill-opacity:1;fill-rule:evenodd;stroke:none" />
    <path
       inkscape:connector-curvature="0"
       id="path7722"
       d="m 284.98105,407.69243 0,152.43498 115.95805,0 0,-152.43498 -115.95805,0 z"
       style="fill:#a6a6a6;fill-opacity:1;fill-rule:evenodd;stroke:none" />
    <path
       inkscape:connector-curvature="0"
       id="path7724"
       d="m 342.96021,370.57617 c -32.02205,0 -57.97916,15.59193 -57.97916,34.84465 0,19.25292 25.95711,34.84485 57.97916,34.84485 32.02178,0 57.97889,-15.59193 57.97889,-34.84485 0,-19.25272 -25.95711,-34.84465 -57.97889,-34.84465 z"
       style="fill:#a6a6a6;fill-opacity:1;fill-rule:evenodd;stroke:none" />
    <path
       inkscape:connector-curvature="0"
       id="path7726"
       d="m 298.91888,528.12736 c 1.14695,-4.19015 1.38938,-3.28591 1.19098,1.54376 -0.17639,4.82995 -0.0883,20.57625 -2.31564,27.43482 -2.22758,6.83655 -10.32114,14.04817 -11.07101,13.67338 -0.74986,-0.35306 4.25648,-8.66704 6.5278,-15.87867 2.27161,-7.23363 4.5212,-22.56084 5.66787,-26.77329 z"
       style="fill:#3eb319;fill-opacity:1;fill-rule:evenodd;stroke:none" />
    <path
       inkscape:connector-curvature="0"
       id="path7728"
       d="m 283.59167,569.23557 c -0.11034,4.36653 -0.55146,3.52861 -1.52174,-1.19098 -0.97028,-4.74162 -4.82967,-20.00278 -4.3005,-27.19211 0.52945,-7.18961 6.66016,-16.12138 7.49836,-15.94471 0.81591,0.17639 -2.0732,9.43892 -2.55834,17.00332 -0.48514,7.54239 0.99257,22.97995 0.88222,27.32448 z"
       style="fill:#3eb319;fill-opacity:1;fill-rule:evenodd;stroke:none" />
    <path
       inkscape:connector-curvature="0"
       id="path7730"
       d="m 293.11893,531.72231 c 0.92625,-3.79335 0.92625,-2.84509 0.33077,1.78618 -0.59549,4.60925 -2.27161,19.87042 -3.92572,25.93509 -1.67611,6.06496 -5.77793,10.98268 -6.06467,10.45352 -0.26472,-0.55147 2.71272,-7.3217 4.43287,-13.71742 1.72014,-6.41745 4.3005,-20.68632 5.22675,-24.45737 z"
       style="fill:#3eb319;fill-opacity:1;fill-rule:evenodd;stroke:none" />
    <path
       inkscape:connector-curvature="0"
       id="path7732"
       d="m 279.20284,563.01624 c 0.81618,3.85938 0.35306,3.04348 -1.21271,-1.36709 -1.56605,-4.41085 -7.05725,-18.78979 -8.15989,-25.09717 -1.12494,-6.28538 0.92625,-12.98956 1.47743,-12.68081 0.55146,0.33076 0.59549,7.9835 1.83049,14.62165 1.213,6.63815 5.24877,20.66403 6.06468,24.52342 z"
       style="fill:#3eb319;fill-opacity:1;fill-rule:evenodd;stroke:none" />
    <path
       inkscape:connector-curvature="0"
       id="path7734"
       d="m 281.69514,566.89792 c -1.12494,3.83709 -1.16896,2.88883 -0.52945,-1.76445 0.6175,-4.65328 2.29362,-20.0025 4.34453,-26.15551 2.05119,-6.15301 7.54239,-11.31373 7.93948,-10.78428 0.3968,0.52917 -3.44058,7.47607 -5.53551,13.98186 -2.11723,6.50606 -5.09439,20.90702 -6.21905,24.72238 z"
       style="fill:#3eb319;fill-opacity:1;fill-rule:evenodd;stroke:none" />
    <path
       inkscape:connector-curvature="0"
       id="path7736"
       d="m 299.9775,567.8682 c -1.52175,3.90342 -1.6098,2.97716 -0.7939,-1.74216 0.81591,-4.69759 2.88911,-20.15716 5.66787,-26.46454 2.80078,-6.30738 10.51955,-11.8649 11.11504,-11.37976 0.5732,0.50743 -4.74161,7.71877 -7.60871,14.37922 -2.88882,6.66016 -6.85856,21.30382 -8.3803,25.20724 z"
       style="fill:#3eb319;fill-opacity:1;fill-rule:evenodd;stroke:none" />
    <path
       inkscape:connector-curvature="0"
       id="path7738"
       d="m 428.99141,514.60863 c -0.17639,1.21299 -0.28673,8.46865 0,11.86491 0.26473,3.39626 1.45542,6.59384 1.63181,8.49065 0.17667,1.89654 -0.77188,2.95515 -0.57319,2.91113 0.22041,-0.0223 1.65382,-1.45571 1.83049,-3.0655 0.1984,-1.63209 -0.35306,-4.08009 -0.66181,-6.68246 -0.30875,-2.60209 -0.8159,-6.70419 -1.16868,-8.90947 -0.35306,-2.18327 -0.88223,-5.82225 -1.05862,-4.60926 z"
       style="fill:#3eb319;fill-opacity:1;fill-rule:evenodd;stroke:none" />
    <path
       inkscape:connector-curvature="0"
       id="path7740"
       d="m 422.5957,536.99309 c 0.0443,-1.23501 -0.68354,-8.46864 -1.32305,-11.79887 -0.66153,-3.35195 -2.22758,-6.39543 -2.62439,-8.24794 -0.37507,-1.87452 0.48514,-3.02147 0.26473,-2.95515 -0.19869,0.044 -1.49973,1.63181 -1.49973,3.2639 -0.022,1.63209 0.8159,4.01377 1.4334,6.54981 0.59549,2.53634 1.54376,6.57211 2.16126,8.71136 0.59549,2.13924 1.54376,5.68988 1.58778,4.47689 z"
       style="fill:#3eb319;fill-opacity:1;fill-rule:evenodd;stroke:none" />
    <path
       inkscape:connector-curvature="0"
       id="path7742"
       d="m 427.27127,514.07918 c -0.55146,1.05862 -2.75675,6.90288 -3.2862,10.71824 -0.50715,3.79307 -0.088,10.10045 0.15438,12.08532 0.24271,1.98487 1.12494,1.25702 1.34535,-0.1984 0.2207,-1.4557 -0.30875,-5.49148 0,-8.53468 0.28674,-3.02148 1.4557,-7.43233 1.78647,-9.70365 0.30875,-2.29362 0.52917,-5.42516 0,-4.36683 z"
       style="fill:#3eb319;fill-opacity:1;fill-rule:evenodd;stroke:none" />
    <path
       inkscape:connector-curvature="0"
       id="path7744"
       d="m 427.82245,537.45622 c 0.11035,-1.213 0.0443,-7.58642 -0.81591,-11.4238 -0.86021,-3.83737 -3.4623,-9.79198 -4.36653,-11.64448 -0.92625,-1.83022 -1.4557,-0.83792 -1.14695,0.63979 0.30875,1.47744 2.20556,5.20446 2.99945,8.22593 0.79389,3.04349 1.27903,7.67476 1.78618,9.96809 0.50744,2.31564 1.4114,5.42544 1.54376,4.23447 z"
       style="fill:#3eb319;fill-opacity:1;fill-rule:evenodd;stroke:none" />
    <path
       inkscape:connector-curvature="0"
       id="path7746"
       d="m 430.02802,536.90475 c -0.28674,2.07321 0,1.69813 0.8159,-0.48514 0.8159,-2.20528 3.77105,-9.2185 4.0798,-12.68081 0.28674,-3.44028 -1.89653,-8.04954 -2.29362,-8.02752 -0.3968,0.044 0.26473,4.60925 -0.11006,8.24794 -0.35306,3.61696 -2.20557,10.8506 -2.49202,12.94553 z"
       style="fill:#3eb319;fill-opacity:1;fill-rule:evenodd;stroke:none" />
    <path
       inkscape:connector-curvature="0"
       id="path7748"
       d="m 391.1474,570.64696 c -1.98487,3.32993 -1.98487,2.49201 -0.70584,-1.56577 1.27903,-4.05807 4.80766,-17.44444 8.35829,-22.75953 3.52863,-5.31481 12.28401,-9.63732 12.8795,-9.15218 0.57319,0.46312 -5.75621,6.39544 -9.3949,12.01928 -3.66098,5.62356 -9.17448,18.14999 -11.13705,21.4582 z"
       style="fill:#3eb319;fill-opacity:1;fill-rule:evenodd;stroke:none" />
    <path
       inkscape:connector-curvature="0"
       id="path7750"
       d="m 382.70077,535.14058 c 0.044,-3.85939 0.46313,-3.13154 1.38938,1.01431 0.92625,4.14613 4.54293,17.51076 4.14613,23.88418 -0.39709,6.37343 -5.82225,14.5113 -6.57211,14.37893 -0.74987,-0.13236 1.76445,-8.42432 2.11723,-15.12879 0.35278,-6.70419 -1.12466,-20.28924 -1.08063,-24.14863 z"
       style="fill:#3eb319;fill-opacity:1;fill-rule:evenodd;stroke:none" />
    <path
       inkscape:connector-curvature="0"
       id="path7752"
       d="m 388.61107,571.94799 c -0.83792,3.33023 -0.83792,2.49203 -0.28674,-1.56575 0.55146,-4.0578 2.05119,-17.44444 3.57293,-22.75925 1.49945,-5.31509 5.24877,-9.63761 5.4912,-9.15247 0.24271,0.46313 -2.44799,6.39572 -4.01376,12.01928 -1.56577,5.64586 -3.90342,18.15028 -4.76363,21.45819 z"
       style="fill:#3eb319;fill-opacity:1;fill-rule:evenodd;stroke:none" />
    <path
       inkscape:connector-curvature="0"
       id="path7754"
       d="m 373.94539,537.4342 c -0.77188,-3.37425 -0.35278,-2.6464 1.10264,1.1907 1.4557,3.83737 6.57211,16.36381 7.63073,21.8773 1.08063,5.53551 -0.70584,11.53413 -1.21299,11.26942 -0.48514,-0.26473 -0.61751,-7.03496 -1.78647,-12.8572 -1.16868,-5.82225 -4.96203,-18.08396 -5.73391,-21.48022 z"
       style="fill:#3eb319;fill-opacity:1;fill-rule:evenodd;stroke:none" />
    <path
       inkscape:connector-curvature="0"
       id="path7756"
       d="m 370.61545,540.56574 c -1.14695,-3.13154 -1.30133,-2.448 -0.88223,1.19098 0.4191,3.61668 1.21299,15.48158 3.39627,20.57597 2.18327,5.11641 9.10815,10.29913 9.70364,10.01239 0.59549,-0.30875 -3.92571,-6.41772 -6.15301,-11.79885 -2.22729,-5.35884 -4.89599,-16.84895 -6.06467,-19.98049 z"
       style="fill:#3eb319;fill-opacity:1;fill-rule:evenodd;stroke:none" />
    <path
       inkscape:connector-curvature="0"
       id="path7758"
       d="m 369.75524,515.51287 c 0.8382,3.13154 2.05091,5.55752 3.17584,8.68906 1.12466,3.15355 2.82279,6.24106 3.57265,10.14476 0.74987,3.90342 0.39681,9.30656 0.92626,13.2763 0.55118,3.99175 1.36736,6.83655 2.2716,10.6076 0.90396,3.74933 2.62439,11.35775 3.15356,11.97526 0.50715,0.59549 0.33076,-5.07238 -0.022,-8.31427 -0.35278,-3.24189 -1.74216,-7.85114 -2.02889,-11.13705 -0.30875,-3.30793 0.52916,-5.73391 0.26444,-8.64503 -0.24243,-2.93314 -1.12466,-6.08669 -1.76417,-8.90976 -0.63952,-2.82279 -1.36737,-5.86627 -2.11723,-8.07156 -0.74987,-2.18327 -1.32306,-2.62438 -2.4257,-5.09439 -1.08063,-2.47001 -2.93314,-7.25565 -4.05808,-9.68163 -1.12465,-2.448 -2.55806,-5.64558 -2.71243,-4.94002 -0.15438,0.70584 0.94826,6.96891 1.76417,10.10073 z"
       style="fill:#3eb319;fill-opacity:1;fill-rule:evenodd;stroke:none" />
    <path
       inkscape:connector-curvature="0"
       id="path7760"
       d="m 354.22963,507.74979 c -2.09522,0.55146 -4.85197,1.27931 -4.5212,1.91883 0.30875,0.63951 4.03578,1.74215 6.43974,1.94056 2.40397,0.19868 5.88829,-1.10265 8.00552,-0.74959 2.09494,0.33077 3.57265,2.66841 4.63127,2.8448 1.05861,0.15438 2.77876,-0.57347 1.67611,-1.80848 -1.10264,-1.235 -5.46946,-4.85168 -8.24822,-5.55752 -2.75675,-0.70555 -5.9103,0.8382 -7.98322,1.4114 z"
       style="fill:#ffff99;fill-opacity:1;fill-rule:evenodd;stroke:none" />
    <path
       inkscape:connector-curvature="0"
       id="path7762"
       d="m 369.49051,494.47349 c 1.01459,-1.1907 2.35994,-2.75647 2.80106,-1.85251 0.46312,0.90424 0.3968,5.0944 -0.0883,7.27795 -0.48514,2.20528 -2.49202,3.81508 -2.75674,5.9103 -0.26473,2.09493 1.25701,5.62356 1.12465,6.66016 -0.13208,1.05861 -1.21271,1.74216 -1.94056,-0.37479 -0.72785,-2.13925 -2.58036,-9.35087 -2.42598,-12.37234 0.13236,-2.99918 2.27161,-4.05779 3.28591,-5.24877 z"
       style="fill:#ffff99;fill-opacity:1;fill-rule:evenodd;stroke:none" />
    <path
       inkscape:connector-curvature="0"
       id="path7764"
       d="m 368.34384,507.63972 c 0.74987,-0.74986 -4.34453,-3.2639 -6.21905,-4.27849 -1.89681,-1.0366 -3.19786,-1.54375 -5.1164,-1.89653 -1.89682,-0.35306 -5.22676,-0.74987 -6.3517,-0.19869 -1.10264,0.55147 -0.79389,2.55835 -0.30875,3.52863 0.48543,0.94826 2.07321,1.67612 3.2862,2.20556 1.21299,0.50716 1.72014,0.90396 3.99175,0.92626 2.24931,0 9.96809,0.48514 10.71795,-0.28674 z"
       style="fill:#ffff99;fill-opacity:1;fill-rule:evenodd;stroke:none" />
    <path
       inkscape:connector-curvature="0"
       id="path7766"
       d="m 366.09425,510.8373 c -0.48514,0.24271 -1.65382,-0.74958 -2.6464,-1.45542 -0.97028,-0.68354 -2.05091,-1.63209 -3.24188,-2.66841 -1.1907,-1.05862 -2.99918,-2.42599 -3.94745,-3.59495 -0.92625,-1.16868 -1.38938,-2.38167 -1.72014,-3.44029 -0.33105,-1.08063 -0.6398,-2.24931 -0.26473,-2.95515 0.3748,-0.68354 1.58779,-1.14667 2.49203,-1.235 0.92625,-0.0883 2.07292,-0.11035 2.99917,0.72785 0.92626,0.8159 1.47772,2.24931 2.55835,4.19015 1.10264,1.96286 3.17584,5.7119 4.01376,7.5644 0.83792,1.8305 0.24271,2.6464 -0.24271,2.86682 z"
       style="fill:#ffff99;fill-opacity:1;fill-rule:evenodd;stroke:none" />
    <path
       inkscape:connector-curvature="0"
       id="path7768"
       d="m 367.17488,509.82299 c -0.90396,-0.46313 -2.73445,-4.63127 -3.79307,-6.3294 -1.05861,-1.69813 -2.0732,-2.44799 -2.58036,-3.85939 -0.48514,-1.41139 -0.35277,-3.41827 -0.35277,-4.60925 0,-1.16896 -0.26473,-2.27161 0.37479,-2.49202 0.63951,-0.2207 2.60237,0.044 3.4846,1.16868 0.88222,1.12494 1.0366,3.46259 1.78618,5.55752 0.74986,2.09522 2.33793,5.11669 2.69071,7.01322 0.37479,1.91855 -0.70584,4.01377 -1.61008,3.55064 z"
       style="fill:#ffff99;fill-opacity:1;fill-rule:evenodd;stroke:none" />
    <path
       inkscape:connector-curvature="0"
       id="path7770"
       d="m 359.32402,499.12705 c -0.46313,0.44083 -1.41167,0.28646 -1.76445,0.57319 -0.35278,0.30876 -0.57348,0.59549 -0.35278,1.19098 0.24243,0.6175 0.92625,1.65411 1.69813,2.42598 0.77188,0.74987 1.49973,0.94827 2.93314,2.11695 1.4334,1.16897 4.918,4.65357 5.66787,4.89599 0.77187,0.24272 -0.50744,-2.13924 -1.05862,-3.4623 -0.55146,-1.30132 -1.56577,-2.99946 -2.20557,-4.43286 -0.63951,-1.4114 -0.99229,-3.19786 -1.63181,-4.07981 -0.63951,-0.90424 -1.6541,-1.41167 -2.20528,-1.27931 -0.55146,0.13236 -0.59549,1.52174 -1.08063,2.05119 z"
       style="fill:#ffb909;fill-opacity:1;fill-rule:evenodd;stroke:none" />
    <path
       inkscape:connector-curvature="0"
       id="path7772"
       d="m 362.76431,499.87663 c 0.85993,0.13237 3.10952,3.04349 4.3005,4.14613 1.21299,1.12494 2.20529,1.4557 2.86682,2.49202 0.63951,1.01459 0.86021,2.71272 1.05861,3.683 0.17639,0.97056 0.59549,1.78647 0.0663,2.13925 -0.52945,0.37507 -2.2716,0.68382 -3.21987,0 -0.94827,-0.68355 -1.4557,-2.53605 -2.448,-4.05779 -0.99257,-1.52175 -2.84508,-3.57266 -3.46258,-5.05037 -0.63952,-1.47743 -0.022,-3.48432 0.8382,-3.35224 z"
       style="fill:#ffff99;fill-opacity:1;fill-rule:evenodd;stroke:none" />
    <path
       inkscape:connector-curvature="0"
       id="path7774"
       d="m 371.16663,511.80786 c 0.88223,-0.59549 -3.52862,-3.83738 -5.13842,-5.11641 -1.6098,-1.30132 -2.75675,-2.00688 -4.54293,-2.64668 -1.76445,-0.66153 -4.89599,-1.60979 -6.08697,-1.27903 -1.19098,0.35278 -1.32306,2.31564 -1.05862,3.28592 0.28674,0.99257 1.65411,1.96285 2.71272,2.64668 1.05862,0.70555 1.49973,1.14666 3.683,1.54375 2.18328,0.39681 9.54928,2.16126 10.43122,1.56577 z"
       style="fill:#ffff99;fill-opacity:1;fill-rule:evenodd;stroke:none" />
    <path
       inkscape:connector-curvature="0"
       id="path7776"
       d="m 301.87403,500.56046 c -2.75675,3.61668 -5.51321,7.23364 -6.26308,10.93865 -0.77187,3.70501 2.2273,7.45405 1.67612,11.29143 -0.52945,3.83737 -3.46258,7.58641 -4.94002,11.68851 -1.47771,4.12383 -2.91112,8.02753 -3.88168,13.01158 -0.97028,4.98404 -1.6098,13.18796 -1.91855,16.93728 -0.33076,3.74904 -0.15437,6.66016 0,5.60155 0.13237,-1.05862 0.28674,-8.02753 0.86022,-11.95324 0.5952,-3.92543 1.47743,-8.00524 2.64639,-11.64421 1.16869,-3.63897 3.04321,-6.77051 4.41057,-10.23281 1.36737,-3.46259 2.97745,-7.10128 3.81536,-10.58588 0.81591,-3.48431 0.94827,-7.366 1.12466,-10.36517 0.19868,-2.99918 -0.24243,-5.53551 0,-7.63044 0.24271,-2.09522 0.81619,-3.50661 1.41139,-4.94002 z"
       style="fill:#3eb319;fill-opacity:1;fill-rule:evenodd;stroke:none" />
    <path
       inkscape:connector-curvature="0"
       id="path7778"
       d="m 289.21523,499.30344 c -1.91854,-1.01459 -4.41056,-2.35994 -4.63126,-1.67612 -0.1984,0.68354 1.76445,4.03578 3.39626,5.82225 1.63209,1.78618 5.07238,3.19757 6.37371,4.89571 1.30104,1.67611 0.79389,4.38883 1.45542,5.22675 0.63951,0.86021 2.40396,1.47772 2.44799,-0.15437 0.044,-1.65411 -0.70584,-7.27767 -2.24959,-9.70365 -1.52174,-2.40369 -4.89571,-3.39626 -6.79253,-4.41057 z"
       style="fill:#ffff99;fill-opacity:1;fill-rule:evenodd;stroke:none" />
    <path
       inkscape:connector-curvature="0"
       id="path7780"
       d="m 309.43843,500.009 c 1.54376,-0.17639 3.59495,-0.41882 3.30821,0.55146 -0.28674,0.97028 -3.19786,3.99175 -5.05037,5.27078 -1.83049,1.27903 -4.41085,1.08063 -6.02064,2.42598 -1.63209,1.34507 -2.91113,4.98405 -3.72703,5.64558 -0.8159,0.68382 -2.0732,0.44111 -1.16896,-1.6098 0.92625,-2.05091 4.4989,-8.57899 6.66016,-10.69594 2.16126,-2.09522 4.43286,-1.41168 5.99863,-1.58806 z"
       style="fill:#ffff99;fill-opacity:1;fill-rule:evenodd;stroke:none" />
    <path
       inkscape:connector-curvature="0"
       id="path7782"
       d="m 299.6027,508.85271 c 1.05834,-0.0443 -0.94854,-5.3371 -1.63209,-7.38801 -0.68354,-2.0289 -1.27903,-3.30821 -2.44799,-4.85197 -1.14667,-1.56577 -3.30793,-4.12383 -4.49891,-4.47689 -1.19097,-0.35278 -2.33764,1.32334 -2.62438,2.35994 -0.28674,1.03632 0.35278,2.6464 0.88223,3.85939 0.52916,1.1907 0.66152,1.83021 2.29362,3.39627 1.65382,1.54375 6.96891,7.1453 8.02752,7.10127 z"
       style="fill:#ffff99;fill-opacity:1;fill-rule:evenodd;stroke:none" />
    <path
       inkscape:connector-curvature="0"
       id="path7784"
       d="m 296.36082,509.66862 c -0.50744,-0.15438 -0.68383,-1.69814 -0.92626,-2.8671 -0.26472,-1.16868 -0.39708,-2.60237 -0.55146,-4.19015 -0.17639,-1.56577 -0.55146,-3.79307 -0.44111,-5.2928 0.11035,-1.49973 0.6175,-2.69071 1.10264,-3.70501 0.48514,-0.99258 1.05862,-2.07321 1.80848,-2.33765 0.74987,-0.24271 1.94084,0.24243 2.66841,0.79389 0.72785,0.57348 1.56577,1.32306 1.69813,2.55806 0.11035,1.23501 -0.46312,2.6687 -0.99229,4.82996 -0.52945,2.18327 -1.58778,6.32939 -2.22758,8.24794 -0.63952,1.91883 -1.63181,2.11723 -2.13896,1.96286 z"
       style="fill:#ffff99;fill-opacity:1;fill-rule:evenodd;stroke:none" />
    <path
       inkscape:connector-curvature="0"
       id="path7786"
       d="m 297.26478,509.6466 c -0.35278,-0.94826 1.14695,-5.24877 1.54375,-7.21162 0.37507,-1.96286 0.15438,-3.21988 0.74987,-4.58724 0.6175,-1.36737 2.0732,-2.73445 2.8891,-3.59467 0.7939,-0.86021 1.34536,-1.8525 1.96286,-1.56577 0.6175,0.26473 1.87452,1.78619 1.74216,3.21988 -0.11035,1.41139 -1.58778,3.24188 -2.47001,5.27078 -0.88223,2.05091 -1.78647,5.33682 -2.82279,6.99093 -1.0366,1.6541 -3.24188,2.44799 -3.59494,1.47771 z"
       style="fill:#ffff99;fill-opacity:1;fill-rule:evenodd;stroke:none" />
    <path
       inkscape:connector-curvature="0"
       id="path7788"
       d="m 299.13958,495.68648 c -1.05862,0 -2.31564,-0.50715 -3.02147,0 -0.70584,0.50744 -1.23501,1.94084 -1.16897,3.10952 0.0663,1.16897 0.88223,1.89682 1.52174,3.9037 0.61751,1.98487 1.56577,7.25565 2.2496,8.07156 0.70555,0.79389 1.34535,-1.91855 1.91854,-3.2639 0.55147,-1.36737 0.90424,-3.37425 1.43369,-4.87398 0.55118,-1.52174 1.76417,-3.02119 1.83021,-4.16814 0.0663,-1.14667 -0.66152,-2.24931 -1.45542,-2.71244 -0.79389,-0.46312 -2.24959,-0.0443 -3.30792,-0.0663 z"
       style="fill:#ffb909;fill-opacity:1;fill-rule:evenodd;stroke:none" />
    <path
       inkscape:connector-curvature="0"
       id="path7790"
       d="m 299.13958,495.68648 c -1.05862,0 -2.31564,-0.50715 -3.02147,0 -0.70584,0.50744 -1.23501,1.94084 -1.16897,3.10952 0.0663,1.16897 0.88223,1.89682 1.52174,3.9037 0.61751,1.98487 1.56577,7.25565 2.2496,8.07156 0.70555,0.79389 1.34535,-1.91855 1.91854,-3.2639 0.55147,-1.36737 0.90424,-3.37425 1.43369,-4.87398 0.55118,-1.52174 1.76417,-3.02119 1.83021,-4.16814 0.0663,-1.14667 -0.66152,-2.24931 -1.45542,-2.71244 -0.79389,-0.46312 -2.24959,-0.0443 -3.30792,-0.0663"
       style="fill:none;stroke:#ffff99;stroke-width:0.94830716px;stroke-linecap:butt;stroke-linejoin:round;stroke-miterlimit:4;stroke-dasharray:none;stroke-opacity:1" />
    <path
       inkscape:connector-curvature="0"
       id="path7792"
       d="m 298.45575,513.50599 c -0.13236,-0.99257 1.89654,-5.3371 2.55835,-7.32197 0.66153,-2.00688 0.68354,-3.28592 1.4334,-4.6753 0.74987,-1.36736 2.2496,-2.73473 3.08752,-3.57265 0.83791,-0.86021 1.45541,-1.8525 1.94084,-1.54375 0.48514,0.30875 1.30104,1.91854 0.94826,3.35223 -0.33076,1.45542 -1.89681,3.2639 -2.99945,5.31481 -1.12466,2.07292 -2.448,5.40315 -3.61668,7.03524 -1.19098,1.65382 -3.21987,2.38167 -3.35224,1.41139 z"
       style="fill:#ffff99;fill-opacity:1;fill-rule:evenodd;stroke:none" />
    <path
       inkscape:connector-curvature="0"
       id="path7794"
       d="m 298.12499,513.59404 c -0.37479,-0.11006 -0.44111,-1.4334 -0.59549,-2.44799 -0.13236,-1.01431 -0.17639,-2.24931 -0.24243,-3.61668 -0.0663,-1.36737 -0.26472,-3.28591 -0.13236,-4.58724 0.15437,-1.32306 0.57319,-2.38167 0.97028,-3.2639 0.4191,-0.90424 0.88223,-1.85251 1.45542,-2.09493 0.57347,-0.26473 1.4557,0.11006 1.96285,0.57319 0.52945,0.46313 1.14696,1.10264 1.19098,2.16126 0.044,1.08063 -0.44111,2.33764 -0.92625,4.23446 -0.48514,1.91855 -1.43341,5.57953 -1.98487,7.25565 -0.57348,1.69813 -1.32334,1.89653 -1.69813,1.78618 z"
       style="fill:#ffff99;fill-opacity:1;fill-rule:evenodd;stroke:none" />
    <path
       inkscape:connector-curvature="0"
       id="path7796"
       d="m 298.83083,513.81474 c 1.05833,0.17639 0.044,-5.18273 -0.26473,-7.23364 -0.28674,-2.0509 -0.66153,-3.35223 -1.49973,-5.02835 -0.85993,-1.69813 -2.51403,-4.52092 -3.61667,-5.09439 -1.10265,-0.55118 -2.53634,0.77188 -2.99946,1.69813 -0.48514,0.90424 -0.13236,2.53633 0.17639,3.77133 0.30875,1.23501 0.30875,1.85251 1.63209,3.6387 1.32334,1.78646 5.51349,8.09385 6.57211,8.24822 z"
       style="fill:#ffff99;fill-opacity:1;fill-rule:evenodd;stroke:none" />
    <text
       xml:space="preserve"
       style="font-size:16.46994972px;font-style:normal;font-variant:normal;font-weight:normal;font-stretch:normal;line-height:125%;letter-spacing:0px;word-spacing:0px;fill:#ffffff;fill-opacity:1;stroke:none;font-family:Small Fonts;-inkscape-font-specification:Small Fonts"
       x="313.49454"
       y="383.98483"
       id="text7855"
       sodipodi:linespacing="125%"
       transform="scale(0.94114015,1.062541)"><tspan
         sodipodi:role="line"
         id="tspan7857"
         x="313.49454"
         y="383.98483">Johnny Case</tspan></text>
    <text
       xml:space="preserve"
       style="font-size:10.23041439px;font-style:normal;font-variant:normal;font-weight:normal;font-stretch:normal;text-align:start;line-height:125%;letter-spacing:0px;word-spacing:0px;writing-mode:lr-tb;text-anchor:start;fill:#ffffff;fill-opacity:1;stroke:none;font-family:Small Fonts;-inkscape-font-specification:'Small Fonts, Normal'"
       x="314.9671"
       y="423.69812"
       id="text7855-2"
       sodipodi:linespacing="125%"
       transform="scale(0.99929455,1.000706)"><tspan
         sodipodi:role="line"
         id="tspan7877"
         x="314.9671"
         y="423.69812">1990-2016</tspan></text>
    <text
       xml:space="preserve"
       style="font-size:6.04242563px;font-style:normal;font-variant:normal;font-weight:normal;font-stretch:normal;text-align:center;line-height:125%;letter-spacing:0px;word-spacing:0px;writing-mode:lr-tb;text-anchor:middle;fill:#ffffff;fill-opacity:1;stroke:none;font-family:sans-serif;-inkscape-font-specification:'sans-serif, Normal'"
       x="427.23428"
       y="354.03189"
       id="text7855-0"
       sodipodi:linespacing="125%"
       transform="scale(0.80172482,1.2473108)"><tspan
         sodipodi:role="line"
         id="tspan7939"
         x="427.23428"
         y="354.03189">Here lies the body of Johnny Case</tspan><tspan
         sodipodi:role="line"
         x="427.23428"
         y="361.58493"
         id="tspan3060">who died on the way to his polling place.</tspan><tspan
         sodipodi:role="line"
         x="427.23428"
         y="369.13797"
         id="tspan3062">He really just wanted Clinton to lose,</tspan><tspan
         sodipodi:role="line"
         x="427.23428"
         y="376.69098"
         id="tspan3064">but here he lies for his eternal snooze.</tspan></text>
  </g>
</svg>
